<svg width="21" height="21" viewBox="0 0 21 21" fill="none" xmlns="http://www.w3.org/2000/svg">
<path d="M18 1.5H3C2.60218 1.5 2.22064 1.65804 1.93934 1.93934C1.65804 2.22064 1.5 2.60218 1.5 3V6.75C1.5 6.94891 1.42098 7.13968 1.28033 7.28033C1.13968 7.42098 0.948912 7.5 0.75 7.5C0.551088 7.5 0.360322 7.42098 0.21967 7.28033C0.0790176 7.13968 0 6.94891 0 6.75V3C0 2.20435 0.316071 1.44129 0.87868 0.87868C1.44129 0.316071 2.20435 0 3 0L18 0C18.7956 0 19.5587 0.316071 20.1213 0.87868C20.6839 1.44129 21 2.20435 21 3V6.75C21 6.94891 20.921 7.13968 20.7803 7.28033C20.6397 7.42098 20.4489 7.5 20.25 7.5C20.0511 7.5 19.8603 7.42098 19.7197 7.28033C19.579 7.13968 19.5 6.94891 19.5 6.75V3C19.5 2.60218 19.342 2.22064 19.0607 1.93934C18.7794 1.65804 18.3978 1.5 18 1.5ZM0.75 13.5C0.948912 13.5 1.13968 13.579 1.28033 13.7197C1.42098 13.8603 1.5 14.0511 1.5 14.25V18C1.5 18.3978 1.65804 18.7794 1.93934 19.0607C2.22064 19.342 2.60218 19.5 3 19.5H18C18.3978 19.5 18.7794 19.342 19.0607 19.0607C19.342 18.7794 19.5 18.3978 19.5 18V14.25C19.5 14.0511 19.579 13.8603 19.7197 13.7197C19.8603 13.579 20.0511 13.5 20.25 13.5C20.4489 13.5 20.6397 13.579 20.7803 13.7197C20.921 13.8603 21 14.0511 21 14.25V18C21 18.7956 20.6839 19.5587 20.1213 20.1213C19.5587 20.6839 18.7956 21 18 21H3C2.20435 21 1.44129 20.6839 0.87868 20.1213C0.316071 19.5587 0 18.7956 0 18V14.25C0 14.0511 0.0790176 13.8603 0.21967 13.7197C0.360322 13.579 0.551088 13.5 0.75 13.5Z" fill="white"/>
<path d="M14.223 5.95194C14.1794 5.79369 14.085 5.65413 13.9544 5.55468C13.8238 5.45523 13.6642 5.40137 13.5 5.40137C13.3358 5.40137 13.1762 5.45523 13.0456 5.55468C12.915 5.65413 12.8206 5.79369 12.777 5.95194L11.043 12.9089L9.6705 10.1639C9.60815 10.0395 9.51242 9.9349 9.394 9.86179C9.27559 9.78867 9.13917 9.74994 9 9.74994H0.75C0.551088 9.74994 0.360322 9.82896 0.21967 9.96961C0.0790176 10.1103 0 10.301 0 10.4999C0 10.6989 0.0790176 10.8896 0.21967 11.0303C0.360322 11.1709 0.551088 11.2499 0.75 11.2499H8.5365L10.5795 15.3359C10.6473 15.472 10.7549 15.5842 10.888 15.6578C11.021 15.7313 11.1733 15.7627 11.3246 15.7477C11.4758 15.7327 11.619 15.6721 11.7351 15.574C11.8512 15.4758 11.9346 15.3446 11.9745 15.1979L13.5 8.99994L15.027 15.1979C15.0668 15.3446 15.1503 15.4758 15.2664 15.574C15.3825 15.6721 15.5257 15.7327 15.6769 15.7477C15.8282 15.7627 15.9805 15.7313 16.1135 15.6578C16.2466 15.5842 16.3542 15.472 16.422 15.3359L18.462 11.2499H20.25C20.4489 11.2499 20.6397 11.1709 20.7803 11.0303C20.921 10.8896 21 10.6989 21 10.4999C21 10.301 20.921 10.1103 20.7803 9.96961C20.6397 9.82896 20.4489 9.74994 20.25 9.74994H18C17.8608 9.74994 17.7244 9.78867 17.606 9.86179C17.4876 9.9349 17.3918 10.0395 17.3295 10.1639L15.957 12.9089L14.223 5.95194Z" fill="white"/>
</svg>
