<svg width="21" height="20" viewBox="0 0 21 20" fill="none" xmlns="http://www.w3.org/2000/svg">
<path d="M16 11.25L18 13.25V18C18 18.55 17.8043 19.021 17.413 19.413C17.0217 19.805 16.5507 20.0007 16 20H2C1.45 20 0.979333 19.8043 0.588 19.413C0.196667 19.0217 0.000666667 18.5507 0 18V4C0 3.45 0.196 2.97933 0.588 2.588C0.98 2.19667 1.45067 2.00067 2 2H7.5C7.36667 2.3 7.26667 2.621 7.2 2.963C7.13333 3.305 7.08333 3.65067 7.05 4H2V18H16V11.25ZM17.3 6.9L20.5 10.1L19.1 11.5L15.9 8.3C15.55 8.5 15.175 8.66667 14.775 8.8C14.375 8.93333 13.95 9 13.5 9C12.25 9 11.1877 8.56233 10.313 7.687C9.43833 6.81167 9.00067 5.74933 9 4.5C8.99933 3.25067 9.437 2.18833 10.313 1.313C11.189 0.437667 12.2513 0 13.5 0C14.7487 0 15.8113 0.437667 16.688 1.313C17.5647 2.18833 18.002 3.25067 18 4.5C18 4.95 17.9333 5.375 17.8 5.775C17.6667 6.175 17.5 6.55 17.3 6.9ZM13.5 7C14.2 7 14.7917 6.75833 15.275 6.275C15.7583 5.79167 16 5.2 16 4.5C16 3.8 15.7583 3.20833 15.275 2.725C14.7917 2.24167 14.2 2 13.5 2C12.8 2 12.2083 2.24167 11.725 2.725C11.2417 3.20833 11 3.8 11 4.5C11 5.2 11.2417 5.79167 11.725 6.275C12.2083 6.75833 12.8 7 13.5 7ZM2 11.25V18V4V11V10.7V11.25Z" fill="white"/>
</svg>
