<svg width="22" height="26" viewBox="0 0 22 26" fill="none" xmlns="http://www.w3.org/2000/svg">
<g clip-path="url(#clip0_274_415)">
<path d="M5.73042 11.2662C5.78374 11.266 5.83706 11.2659 5.89199 11.2657C5.9506 11.2658 6.0092 11.2658 6.0678 11.2659C6.1305 11.2658 6.19319 11.2657 6.25589 11.2656C6.42781 11.2653 6.59972 11.2653 6.77164 11.2653C6.9572 11.2654 7.14276 11.2651 7.32832 11.2648C7.69172 11.2644 8.05512 11.2643 8.41853 11.2643C8.71395 11.2642 9.00937 11.2641 9.30479 11.264C10.1426 11.2635 10.9803 11.2633 11.8181 11.2633C11.8633 11.2634 11.9084 11.2634 11.955 11.2634C12.0228 11.2634 12.0228 11.2634 12.0919 11.2634C12.8246 11.2634 13.5573 11.2629 14.29 11.2622C15.0425 11.2615 15.795 11.2611 16.5476 11.2612C16.97 11.2612 17.3924 11.2611 17.8148 11.2605C18.1744 11.2601 18.534 11.26 18.8936 11.2603C19.077 11.2605 19.2605 11.2605 19.4439 11.26C19.6119 11.2596 19.78 11.2597 19.9481 11.2602C20.0087 11.2602 20.0693 11.2601 20.13 11.2599C20.6882 11.2575 21.2354 11.2957 21.6563 11.7705C21.9823 12.2633 22.0412 12.7082 22 13.3142C21.9093 13.7594 21.6205 14.1004 21.307 14.3595C21.1058 14.4851 20.9184 14.5218 20.692 14.5221C20.6368 14.5224 20.5816 14.5227 20.5248 14.5231C20.4638 14.5229 20.4029 14.5228 20.342 14.5226C20.277 14.5228 20.2121 14.523 20.1471 14.5233C19.9687 14.5239 19.7903 14.5239 19.6119 14.5238C19.4195 14.5238 19.2271 14.5243 19.0346 14.5248C18.6576 14.5256 18.2806 14.5259 17.9036 14.5259C17.5972 14.526 17.2907 14.5262 16.9843 14.5265C16.1153 14.5274 15.2464 14.5278 14.3774 14.5278C14.3306 14.5278 14.2837 14.5278 14.2355 14.5277C14.1886 14.5277 14.1417 14.5277 14.0933 14.5277C13.3333 14.5277 12.5732 14.5286 11.8132 14.5301C11.0327 14.5315 10.2522 14.5322 9.47171 14.5321C9.03355 14.5321 8.5954 14.5323 8.15725 14.5334C7.78417 14.5343 7.4111 14.5345 7.03803 14.5338C6.84774 14.5335 6.65746 14.5335 6.46717 14.5344C6.29281 14.5352 6.11847 14.535 5.94411 14.5342C5.88119 14.534 5.81827 14.5342 5.75535 14.5347C5.25767 14.5388 4.8707 14.4615 4.50117 14.0574C4.18267 13.6522 4.10457 13.2423 4.11143 12.7017C4.12966 12.4546 4.18518 12.2784 4.2969 12.0693C4.3195 12.0228 4.3195 12.0228 4.34255 11.9754C4.52302 11.6406 4.82712 11.4136 5.15627 11.3224C5.34945 11.2859 5.53479 11.2663 5.73042 11.2662Z" fill="white"/>
<path d="M6.06206 4.09542C6.11838 4.09531 6.17469 4.09519 6.23271 4.09508C6.38837 4.09477 6.54402 4.09478 6.69968 4.09484C6.86781 4.09485 7.03594 4.09457 7.20407 4.09434C7.5332 4.09392 7.86233 4.09379 8.19146 4.09376C8.45904 4.09373 8.72662 4.09363 8.9942 4.09347C9.75326 4.09304 10.5123 4.09281 11.2714 4.09284C11.3327 4.09285 11.3327 4.09285 11.3953 4.09285C11.4567 4.09285 11.4567 4.09285 11.5194 4.09286C12.183 4.09288 12.8466 4.0924 13.5103 4.0917C14.1921 4.09098 14.8739 4.09064 15.5557 4.09068C15.9384 4.0907 16.321 4.09056 16.7036 4.09002C17.0294 4.08957 17.3551 4.08946 17.6808 4.0898C17.8469 4.08996 18.013 4.08997 18.1791 4.08953C18.3594 4.08907 18.5397 4.08938 18.72 4.08977C18.7982 4.08938 18.7982 4.08938 18.8781 4.08899C19.3954 4.09142 19.8949 4.16408 20.2812 4.60003C20.6069 5.09223 20.6671 5.53813 20.625 6.14369C20.5875 6.31179 20.5327 6.44552 20.4531 6.59185C20.438 6.62279 20.423 6.65373 20.4075 6.68561C20.2212 7.03183 19.9256 7.22697 19.5937 7.33879C19.4696 7.35139 19.4696 7.35139 19.3376 7.3516C19.287 7.35192 19.2365 7.35224 19.1844 7.35257C19.1292 7.35242 19.0741 7.35226 19.0172 7.3521C18.9577 7.35229 18.8982 7.35252 18.8387 7.35279C18.6754 7.3534 18.5122 7.35338 18.3489 7.35327C18.1727 7.35325 17.9965 7.3538 17.8203 7.35427C17.4752 7.3551 17.1301 7.35537 16.785 7.35543C16.5045 7.35547 16.224 7.35568 15.9435 7.35599C15.148 7.35687 14.3525 7.35733 13.5571 7.35725C13.5142 7.35725 13.4713 7.35725 13.4272 7.35724C13.3842 7.35724 13.3413 7.35723 13.2971 7.35723C12.6013 7.35719 11.9056 7.35814 11.2098 7.35955C10.4953 7.36098 9.7808 7.36167 9.06629 7.36158C8.6652 7.36155 8.2641 7.36182 7.863 7.36289C7.52151 7.3638 7.18002 7.36402 6.83852 7.36334C6.66433 7.36301 6.49015 7.36301 6.31597 7.36387C6.15637 7.36466 5.9968 7.36451 5.83721 7.36364C5.75241 7.36342 5.66761 7.36417 5.58282 7.36496C5.13731 7.36095 4.82972 7.23956 4.50264 6.88693C4.18102 6.48574 4.10399 6.06971 4.11172 5.53098C4.14562 5.06059 4.37176 4.72464 4.67485 4.4238C5.08487 4.06428 5.57064 4.09469 6.06206 4.09542Z" fill="white"/>
<path d="M5.83395 18.4362C5.87087 18.4361 5.90778 18.4359 5.94582 18.4358C6.06898 18.4353 6.19213 18.4353 6.31529 18.4352C6.40382 18.435 6.49235 18.4347 6.58088 18.4344C6.82103 18.4338 7.06119 18.4335 7.30134 18.4333C7.45153 18.4331 7.60171 18.4329 7.7519 18.4327C8.22222 18.432 8.69254 18.4315 9.16287 18.4313C9.705 18.4311 10.2471 18.4302 10.7892 18.4288C11.2088 18.4277 11.6284 18.4272 12.048 18.4271C12.2984 18.4271 12.5487 18.4268 12.7991 18.4259C13.0347 18.4251 13.2703 18.425 13.506 18.4254C13.5922 18.4254 13.6783 18.4252 13.7645 18.4247C14.9614 18.4183 14.9614 18.4183 15.4258 18.8914C15.7099 19.2401 15.8555 19.6561 15.8555 20.1363C15.8127 20.6348 15.6594 20.999 15.3466 21.3432C15.0408 21.6327 14.7443 21.6874 14.3584 21.6873C14.3002 21.6875 14.3002 21.6875 14.2408 21.6878C14.1105 21.6884 13.9802 21.6886 13.85 21.6887C13.7566 21.6891 13.6633 21.6894 13.57 21.6897C13.2633 21.6908 12.9566 21.6913 12.65 21.6918C12.5444 21.692 12.4388 21.6922 12.3331 21.6924C11.837 21.6934 11.3408 21.6941 10.8447 21.6945C10.2721 21.695 9.69953 21.6963 9.12695 21.6983C8.6843 21.6998 8.24165 21.7005 7.799 21.7007C7.53467 21.7008 7.27035 21.7013 7.00602 21.7025C6.75723 21.7037 6.50846 21.7039 6.25967 21.7034C6.16853 21.7033 6.07738 21.7037 5.98624 21.7043C5.4116 21.7084 4.94114 21.7091 4.50117 21.2281C4.18267 20.8228 4.10457 20.413 4.11143 19.8723C4.12966 19.6252 4.18518 19.4491 4.2969 19.2399C4.3195 19.1934 4.3195 19.1934 4.34255 19.146C4.52302 18.8112 4.82712 18.5842 5.15627 18.493C5.38446 18.4479 5.6034 18.4359 5.83395 18.4362Z" fill="white"/>
<path d="M2.05798 11.4594C2.42414 11.7113 2.66033 12.0977 2.79298 12.5674C2.8309 12.9904 2.81057 13.3452 2.62111 13.7127C2.58389 13.7897 2.58389 13.7897 2.54591 13.8683C2.33355 14.1827 2.0731 14.4627 1.71903 14.5243C1.62809 14.5312 1.53864 14.5327 1.44753 14.5312C1.39938 14.5306 1.39938 14.5306 1.35027 14.5299C0.954285 14.5159 0.665328 14.3737 0.376161 14.0575C0.068972 13.6667 -0.0213184 13.2665 -0.0132437 12.7436C0.02002 12.3015 0.191701 11.967 0.472672 11.671C0.931558 11.2737 1.52997 11.1642 2.05798 11.4594Z" fill="white"/>
<path d="M2.14844 18.6922C2.46739 18.9292 2.67627 19.3248 2.79297 19.7379C2.83088 20.1609 2.81056 20.5157 2.62109 20.8832C2.58387 20.9602 2.58387 20.9602 2.5459 21.0388C2.33354 21.3533 2.07309 21.6333 1.71901 21.6948C1.62807 21.7017 1.53863 21.7032 1.44751 21.7017C1.41538 21.7012 1.38326 21.7008 1.35016 21.7003C0.93466 21.6853 0.645762 21.5276 0.34291 21.1965C0.0197426 20.7629 -0.0297041 20.2917 -8.81031e-07 19.7379C0.0909786 19.244 0.379965 18.9009 0.728622 18.6258C1.14743 18.3632 1.74632 18.4155 2.14844 18.6922Z" fill="white"/>
<path d="M2.10548 4.351C2.13224 4.36846 2.15899 4.38592 2.18655 4.40391C2.49023 4.62377 2.652 4.9531 2.74464 5.34691C2.84271 5.89244 2.78968 6.20703 2.53517 6.69139C2.42859 6.86166 2.32707 6.984 2.17531 7.09909C2.14396 7.12342 2.11261 7.14775 2.08031 7.17281C1.74541 7.38696 1.36107 7.39633 0.988295 7.33873C0.573332 7.19404 0.328919 6.9085 0.0913227 6.50466C-0.0687011 6.13376 -0.0470753 5.62111 0.0359333 5.22554C0.187376 4.76381 0.434955 4.44295 0.822463 4.23604C1.23432 4.05856 1.73123 4.08247 2.10548 4.351Z" fill="white"/>
</g>
<defs>
<clipPath id="clip0_274_415">
<rect width="22" height="25.4953" fill="white" transform="translate(0 0.168213)"/>
</clipPath>
</defs>
</svg>
