<svg width="38" height="29" viewBox="0 0 38 29" fill="none" xmlns="http://www.w3.org/2000/svg">
<path d="M18.4356 7.37847C18.865 7.01331 19.0343 6.43949 18.8105 5.92943C18.6714 5.62224 18.5202 5.32084 18.3509 5.03104L18.1634 4.71804C17.982 4.42824 17.7824 4.14423 17.5708 3.87181C17.226 3.43131 16.6213 3.2864 16.077 3.46029L14.3715 3.99933C13.7244 3.48927 12.9805 3.07195 12.1822 2.78794L11.8133 1.10706C11.6984 0.56802 11.263 0.139107 10.6945 0.0753496C10.2953 0.0231845 9.89013 0 9.47888 0H9.43655C9.0253 0 8.6201 0.0231845 8.22095 0.0695535C7.65247 0.133311 7.21703 0.56802 7.10212 1.10126L6.73321 2.78794C5.92886 3.07774 5.19104 3.48927 4.54393 3.99933L2.83242 3.46608C2.28812 3.2922 1.68335 3.4371 1.33863 3.87761C1.12696 4.15002 0.927384 4.43403 0.739904 4.72384L0.558472 5.03104C0.389135 5.32084 0.237942 5.62224 0.0988442 5.93523C-0.124922 6.43949 0.0444146 7.01331 0.473804 7.38426L1.8164 8.53189C1.74988 8.92023 1.71359 9.32596 1.71359 9.73749C1.71359 10.149 1.74988 10.5547 1.8164 10.9489L0.473804 12.0965C0.0444146 12.4617 -0.124922 13.0355 0.0988442 13.5455C0.237942 13.8527 0.389135 14.1541 0.558472 14.4497L0.739904 14.7511C0.921336 15.0467 1.12091 15.325 1.33863 15.5974C1.68335 16.0379 2.28812 16.1828 2.83242 16.0089L4.53788 15.4699C5.18499 15.9799 5.92886 16.3972 6.72716 16.6812L7.09607 18.3679C7.21098 18.907 7.64642 19.3359 8.2149 19.3996C8.6201 19.446 9.03135 19.4692 9.44864 19.4692C9.86594 19.4692 10.2772 19.446 10.6824 19.3996C11.2509 19.3359 11.6863 18.9012 11.8012 18.3679L12.1701 16.6812C12.9745 16.3914 13.7123 15.9799 14.3594 15.4699L16.0649 16.0089C16.6092 16.1828 17.2139 16.0379 17.5587 15.5974C17.7703 15.325 17.9699 15.0467 18.1513 14.7511L18.3388 14.4381C18.5082 14.1483 18.6593 13.8469 18.7984 13.5397C19.0222 13.0355 18.8529 12.4617 18.4235 12.0907L17.0809 10.9431C17.1474 10.5489 17.1837 10.1432 17.1837 9.73169C17.1837 9.32017 17.1474 8.91444 17.0809 8.5203L18.4235 7.37267L18.4356 7.37847ZM6.55178 9.73749C6.55178 8.99962 6.85762 8.29197 7.40202 7.77022C7.94642 7.24847 8.68479 6.95535 9.45469 6.95535C10.2246 6.95535 10.963 7.24847 11.5074 7.77022C12.0518 8.29197 12.3576 8.99962 12.3576 9.73749C12.3576 10.4754 12.0518 11.183 11.5074 11.7048C10.963 12.2265 10.2246 12.5196 9.45469 12.5196C8.68479 12.5196 7.94642 12.2265 7.40202 11.7048C6.85762 11.183 6.55178 10.4754 6.55178 9.73749ZM30.3012 28.5459C30.6822 28.9574 31.281 29.1197 31.8132 28.9053C32.1337 28.772 32.4482 28.6271 32.7506 28.4648L33.0771 28.2851C33.3795 28.1112 33.6759 27.9199 33.9601 27.7171C34.4197 27.3867 34.5709 26.8071 34.3895 26.2854L33.8271 24.6509C34.3593 24.0307 34.7947 23.3178 35.091 22.5527L36.8509 22.1992C37.4134 22.089 37.8609 21.6717 37.9274 21.1269C37.9758 20.7385 38 20.3444 38 19.9445C38 19.5445 37.9758 19.1504 37.9274 18.7621C37.8609 18.2172 37.4073 17.7999 36.8509 17.6898L35.091 17.3304C34.7887 16.5595 34.3593 15.8524 33.8271 15.2322L34.3895 13.5977C34.5709 13.0761 34.4197 12.4964 33.9601 12.1661C33.6759 11.9632 33.3795 11.7719 33.0771 11.5922L32.7566 11.4184C32.4542 11.2561 32.1397 11.1112 31.8132 10.9779C31.287 10.7634 30.6883 10.9257 30.3012 11.3372L29.1038 12.624C28.6925 12.5602 28.2692 12.5254 27.8398 12.5254C27.4104 12.5254 26.9871 12.5602 26.5758 12.624L25.3784 11.3372C24.9974 10.9257 24.3986 10.7634 23.8664 10.9779C23.5459 11.1112 23.2314 11.2561 22.923 11.4184L22.6085 11.5922C22.3001 11.7661 22.0098 11.9574 21.7255 12.1661C21.2659 12.4964 21.1147 13.0761 21.2962 13.5977L21.8586 15.2322C21.3264 15.8524 20.891 16.5653 20.5946 17.3304L18.8347 17.6782C18.2723 17.7883 17.8248 18.2056 17.7582 18.7505C17.7098 19.1388 17.6857 19.5329 17.6857 19.9329C17.6857 20.3328 17.7098 20.7269 17.7582 21.1153C17.8248 21.6601 18.2783 22.0774 18.8347 22.1876L20.5946 22.5411C20.897 23.312 21.3264 24.0191 21.8586 24.6393L21.2962 26.2738C21.1147 26.7955 21.2659 27.3751 21.7255 27.7055C22.0098 27.9083 22.3001 28.0996 22.6085 28.2735L22.9351 28.4532C23.2375 28.6155 23.552 28.7604 23.8725 28.8937C24.3986 29.1081 24.9974 28.9458 25.3844 28.5343L26.5819 27.2476C26.9931 27.3113 27.4165 27.3461 27.8459 27.3461C28.2752 27.3461 28.6986 27.3113 29.1098 27.2476L30.3073 28.5343L30.3012 28.5459ZM27.8398 17.1565C28.221 17.1565 28.5985 17.2285 28.9507 17.3683C29.3029 17.5081 29.6229 17.713 29.8925 17.9714C30.162 18.2297 30.3759 18.5364 30.5217 18.874C30.6676 19.2115 30.7427 19.5733 30.7427 19.9387C30.7427 20.304 30.6676 20.6658 30.5217 21.0033C30.3759 21.3409 30.162 21.6476 29.8925 21.9059C29.6229 22.1643 29.3029 22.3692 28.9507 22.509C28.5985 22.6488 28.221 22.7208 27.8398 22.7208C27.4586 22.7208 27.0811 22.6488 26.7289 22.509C26.3767 22.3692 26.0567 22.1643 25.7871 21.9059C25.5176 21.6476 25.3037 21.3409 25.1579 21.0033C25.012 20.6658 24.9369 20.304 24.9369 19.9387C24.9369 19.5733 25.012 19.2115 25.1579 18.874C25.3037 18.5364 25.5176 18.2297 25.7871 17.9714C26.0567 17.713 26.3767 17.5081 26.7289 17.3683C27.0811 17.2285 27.4586 17.1565 27.8398 17.1565Z" fill="#57B492"/>
</svg>
